<?xml version="1.0" standalone="no"?>
<svg xmlns:xlink="http://www.w3.org/1999/xlink" id="wave" style="transform:rotate(180deg); transition: 0.3s" viewBox="0 0 1440 100" version="1.1" xmlns="http://www.w3.org/2000/svg"><defs><linearGradient id="sw-gradient-0" x1="0" x2="0" y1="1" y2="0"><stop stop-color="rgba(12, 12, 12, 1)" offset="0%"/><stop stop-color="rgba(12, 12, 12, 1)" offset="100%"/></linearGradient></defs><path style="transform:translate(0, 0px); opacity:1" fill="url(#sw-gradient-0)" d="M0,40L240,38.3C480,37,960,33,1440,40C1920,47,2400,63,2880,68.3C3360,73,3840,67,4320,66.7C4800,67,5280,73,5760,65C6240,57,6720,33,7200,23.3C7680,13,8160,17,8640,18.3C9120,20,9600,20,10080,21.7C10560,23,11040,27,11520,33.3C12000,40,12480,50,12960,46.7C13440,43,13920,27,14400,21.7C14880,17,15360,23,15840,31.7C16320,40,16800,50,17280,50C17760,50,18240,40,18720,41.7C19200,43,19680,57,20160,58.3C20640,60,21120,50,21600,43.3C22080,37,22560,33,23040,33.3C23520,33,24000,37,24480,43.3C24960,50,25440,60,25920,53.3C26400,47,26880,23,27360,18.3C27840,13,28320,27,28800,41.7C29280,57,29760,73,30240,76.7C30720,80,31200,70,31680,58.3C32160,47,32640,33,33120,33.3C33600,33,34080,47,34320,53.3L34560,60L34560,100L34320,100C34080,100,33600,100,33120,100C32640,100,32160,100,31680,100C31200,100,30720,100,30240,100C29760,100,29280,100,28800,100C28320,100,27840,100,27360,100C26880,100,26400,100,25920,100C25440,100,24960,100,24480,100C24000,100,23520,100,23040,100C22560,100,22080,100,21600,100C21120,100,20640,100,20160,100C19680,100,19200,100,18720,100C18240,100,17760,100,17280,100C16800,100,16320,100,15840,100C15360,100,14880,100,14400,100C13920,100,13440,100,12960,100C12480,100,12000,100,11520,100C11040,100,10560,100,10080,100C9600,100,9120,100,8640,100C8160,100,7680,100,7200,100C6720,100,6240,100,5760,100C5280,100,4800,100,4320,100C3840,100,3360,100,2880,100C2400,100,1920,100,1440,100C960,100,480,100,240,100L0,100Z"/></svg>